<svg xmlns="http://www.w3.org/2000/svg" xmlns:svg="http://www.w3.org/2000/svg" xmlns:xlink="http://www.w3.org/1999/xlink" version="1.0" height="933pt" width="1622.0000000000005pt" viewBox="943 464 1630.0000000000005 939" ><defs><style type="text/css">
            @font-face {
                font-family: 'noto_regular';
                src: url('https://app.creately.com/d/assets/fonts/noto/noto-regular.woff') format('woff'),
                     url('https://app.creately.com/d/assets/fonts/noto/noto-regular.woff2') format('woff2');
                font-weight: normal;
                font-style: normal;
            }
        p {
            margin: 0;
        }
        </style></defs><defs>
        <style>
            span{ display: inline-block; }
        </style>
        
        </defs><g id="zm3nefBahD7"><g transform="translate(1590 595)"><rect x="0" y="0" width="980.0000000000005" height="805" fill="rgb(253,252,250)" stroke="#D8D8D8" stroke-width="2" stroke-linecap="round" stroke-linejoin="round" stroke-dasharray="0 0"/></g><g transform="translate(2012.125, 605) rotate(0, 67.875, 0)" width="135.75" height="18"><text text-decoration="none" x="0" fill="#545454" font-size="10pt" font-family="noto_regular"  y="14">neue&#160;</text><text text-decoration="none" x="34.984375" fill="#545454" font-size="10pt" font-family="noto_regular"  y="14">Internetpr&#xE4;senz</text><text text-decoration="none" x="135.75" fill="#4b4b4b" font-size="10pt" font-family="noto_regular"  y="14"></text></g></g><g id="U7HYXRh8eQ4"><g transform="translate(1800 670)"><ellipse cx="70" cy="30" rx="70" ry="30" fill="rgb(36,175,175)" stroke="#24afaf" stroke-width="2" stroke-linecap="round" stroke-linejoin="round" stroke-dasharray="0 0"/></g><g transform="translate(1817.905, 681.995) rotate(0, 52.095, 18.005)" width="104.19" height="36.01"><text text-decoration="none" x="5.649687499999999" fill="#ffffff" font-size="10pt" font-family="noto_regular"  y="14">Leistungs-&#160;</text><text text-decoration="none" x="73.8528125" fill="#ffffff" font-size="10pt" font-family="noto_regular"  y="14">und</text><text text-decoration="none" x="98.5403125" fill="#ffffff" font-size="10pt" font-family="noto_regular"  y="14"></text><text text-decoration="none" x="0.0012499999999988631" fill="#ffffff" font-size="10pt" font-family="noto_regular"  y="32">Produktportfolio</text><text text-decoration="none" x="104.18875" fill="#4b4b4b" font-size="10pt" font-family="noto_regular"  y="32"></text></g></g><g id="UKrXYxS5h1h"><g><path d="M 1516,708 L 1800,700" fill="none" stroke="#7C7B7A" stroke-width="2" stroke-linecap="round" stroke-linejoin="round" stroke-dasharray="0 0"/></g></g><g id="Yr2GSl7BOYE"><g transform="translate(1810 760)"><ellipse cx="60" cy="30" rx="60" ry="30" fill="rgb(36,175,175)" stroke="#24afaf" stroke-width="2" stroke-linecap="round" stroke-linejoin="round" stroke-dasharray="0 0"/></g><g transform="translate(1856.55, 781) rotate(0, 13.45, 9)" width="26.9" height="18"><text text-decoration="none" x="0.0046874999999992895" fill="#ffffff" font-size="10pt" font-family="noto_regular"  y="14">AGB</text><text text-decoration="none" x="26.8953125" fill="#4b4b4b" font-size="10pt" font-family="noto_regular"  y="14"></text></g></g><g id="n0Ubpyf3oog"><g transform="translate(1810 930)"><ellipse cx="60" cy="30" rx="60" ry="30" fill="rgb(36,175,175)" stroke="#24afaf" stroke-width="2" stroke-linecap="round" stroke-linejoin="round" stroke-dasharray="0 0"/></g><g transform="translate(1841.88, 951) rotate(0, 28.12, 9)" width="56.24" height="18"><text text-decoration="none" x="0.0028125000000009948" fill="#ffffff" font-size="10pt" font-family="noto_regular"  y="14">Buchung</text><text text-decoration="none" x="56.237187500000005" fill="#4b4b4b" font-size="10pt" font-family="noto_regular"  y="14"></text></g></g><g id="OstWncqueFH"><g transform="translate(1810 1000)"><ellipse cx="60" cy="30" rx="60" ry="30" fill="rgb(36,175,175)" stroke="#24afaf" stroke-width="2" stroke-linecap="round" stroke-linejoin="round" stroke-dasharray="0 0"/></g><g transform="translate(1832.45, 1021) rotate(0, 37.55, 9)" width="75.1" height="18"><text text-decoration="none" x="0.003124999999997158" fill="#ffffff" font-size="10pt" font-family="noto_regular"  y="14">Stornierung</text><text text-decoration="none" x="75.096875" fill="#4b4b4b" font-size="10pt" font-family="noto_regular"  y="14"></text></g></g><g id="h9XX79gan5B"><mask id="7369a" x="1916" y="946" width="158" height="52" maskUnits="userSpaceOnUse"><rect x="1916" y="946" width="158" height="52" fill="white" /><rect x="1954.575" y="960" width="80.85" height="24" fill="black" /></mask><g mask="url(#7369a)"><path d="M 1930,960 L 2060,984" fill="none" stroke="#7C7B7A" stroke-width="2" stroke-linecap="round" stroke-linejoin="round" stroke-dasharray="3 3"/><path d="M 2060,984 L 2054.3399240190206,976.3468947862636 M 2060,984 L 2051.9786654952186,989.1249070513899 Z" fill="rgb(255,255,255)" stroke="#7C7B7A" stroke-width="2" stroke-linecap="round" stroke-linejoin="round"/></g><g transform="translate(1957.575, 963)" width="74.85" height="18"><text text-decoration="none" x="0.003124999999997158" fill="rgb(84, 84, 84)" font-size="10pt" font-family="noto_regular"  y="14">&#x3C;&#x3C;include&#x3E;&#x3E;</text><text text-decoration="none" x="74.846875" fill="#4b4b4b" font-size="10pt" font-family="noto_regular"  y="14"></text></g></g><g id="mwBivCZh4HZ"><g transform="translate(2050 950)"><ellipse cx="99.99999999999983" cy="60.00000000000008" rx="99.99999999999983" ry="60.00000000000008" fill="rgb(255,255,255)" stroke="#24afaf" stroke-width="2" stroke-linecap="round" stroke-linejoin="round" stroke-dasharray="0 0"/><path d="M 13.397459621556152,30 L 186.6025403784435,30 M 13.397459621556152,30 Z" fill="rgb(255,255,255)" stroke="#24afaf" stroke-width="2" stroke-linecap="round" stroke-linejoin="round" stroke-dasharray="0 0"/></g><g transform="translate(2102.82, 956) rotate(0, 47.18, 9)" width="94.36" height="18"><text text-decoration="none" x="0.0003124999999997158" fill="#4b4b4b" font-weight="bold" font-size="10pt" font-family="noto_regular"  y="14">Authorisierung</text><text text-decoration="none" x="94.3596875" fill="#4b4b4b" font-size="10pt" font-family="noto_regular"  y="14"></text></g><g transform="translate(2098.06, 985) rotate(0, 51.94, 0)" width="103.88" height="18"><text text-decoration="none" x="0.0024999999999977263" fill="rgb(75, 75, 75)" font-weight="bold" font-size="10pt" font-family="noto_regular"  y="14">extension&#160;</text><text text-decoration="none" x="64.736875" fill="rgb(75, 75, 75)" font-weight="bold" font-size="10pt" font-family="noto_regular"  y="14">points</text><text text-decoration="none" x="103.8775" fill="#4b4b4b" font-size="10pt" font-family="noto_regular"  y="14"></text></g><g transform="translate(2107.285, 1003) rotate(0, 42.715, 0)" width="85.43" height="36.01"><text text-decoration="none" x="0.004062500000003411" fill="#4b4b4b" font-size="10pt" font-family="noto_regular"  y="14">Authorisieren</text><text text-decoration="none" x="85.4259375" fill="#4b4b4b" font-size="10pt" font-family="noto_regular"  y="14"></text><text text-decoration="none" x="0.06656250000000341" fill="#4b4b4b" font-size="10pt" font-family="noto_regular"  y="32">Registrierung</text><text text-decoration="none" x="85.3634375" fill="#4b4b4b" font-size="10pt" font-family="noto_regular"  y="32"></text></g></g><g id="QAtEEm1XfEQ"><mask id="71e1d" x="1916" y="1016" width="158" height="34" maskUnits="userSpaceOnUse"><rect x="1916" y="1016" width="158" height="34" fill="white" /><rect x="1954.575" y="1021" width="80.85" height="24" fill="black" /></mask><g mask="url(#71e1d)"><path d="M 1930,1030 L 2060,1036" fill="none" stroke="#7C7B7A" stroke-width="2" stroke-linecap="round" stroke-linejoin="round" stroke-dasharray="3 3"/><path d="M 2060,1036 L 2053.3507244824536,1029.1887141731727 M 2060,1036 L 2052.7510551092,1042.1692201689618 Z" fill="rgb(255,255,255)" stroke="#7C7B7A" stroke-width="2" stroke-linecap="round" stroke-linejoin="round"/></g><g transform="translate(1957.575, 1024)" width="74.85" height="18"><text text-decoration="none" x="0.003124999999997158" fill="rgb(84, 84, 84)" font-size="10pt" font-family="noto_regular"  y="14">&#x3C;&#x3C;include&#x3E;&#x3E;</text><text text-decoration="none" x="74.846875" fill="#4b4b4b" font-size="10pt" font-family="noto_regular"  y="14"></text></g></g><g id="lhdWPCfPT8t"><mask id="8e6bc" x="2136" y="1056" width="28" height="118" maskUnits="userSpaceOnUse"><rect x="2136" y="1056" width="28" height="118" fill="white" /><rect x="2110.645" y="1103" width="78.71" height="24" fill="black" /></mask><g mask="url(#8e6bc)"><path d="M 2150,1070 L 2150,1160" fill="none" stroke="#7C7B7A" stroke-width="2" stroke-linecap="round" stroke-linejoin="round" stroke-dasharray="3 3"/><path d="M 2150,1070 L 2143.5028248587573,1076.9565217391305 M 2150,1070 L 2156.497175141243,1076.9565217391305 Z" fill="rgb(255,255,255)" stroke="#7C7B7A" stroke-width="2" stroke-linecap="round" stroke-linejoin="round"/></g><g transform="translate(2113.645, 1106)" width="72.71" height="18"><text text-decoration="none" x="0.0034374999999968736" fill="rgb(84, 84, 84)" font-size="10pt" font-family="noto_regular"  y="14">&#x3C;&#x3C;extend&#x3E;&#x3E;</text><text text-decoration="none" x="72.70656249999999" fill="#4b4b4b" font-size="10pt" font-family="noto_regular"  y="14"></text></g></g><g id="pCgvj1Vqoqk"><g transform="translate(2090.0000000000005 1160)"><ellipse cx="60" cy="30" rx="60" ry="30" fill="rgb(36,175,175)" stroke="#24afaf" stroke-width="2" stroke-linecap="round" stroke-linejoin="round" stroke-dasharray="0 0"/></g><g transform="translate(2118.6150000000002, 1181) rotate(0, 31.385, 9)" width="62.77" height="18"><text text-decoration="none" x="0.002187500000001563" fill="#ffffff" font-size="10pt" font-family="noto_regular"  y="14">Einloggen</text><text text-decoration="none" x="62.767812500000005" fill="#4b4b4b" font-size="10pt" font-family="noto_regular"  y="14"></text></g></g><g id="7efqdIb6cWt"><g transform="translate(1839.9999999999995 1110)"><path d="M 159.99999999999994,0 L 159.99999999999994,20 L 179.99999999999994,20 L 159.99999999999994,0 L 0,0 L 0,100 L 179.99999999999994,100 L 179.99999999999994,20" fill="rgb(255,255,255)" stroke="#4b4b4b" stroke-width="2" stroke-linecap="round" stroke-linejoin="round" stroke-dasharray="0 0"/></g><g transform="translate(1849.9999999999995, 1117) rotate(0, 0, 0)" width="109.99" height="72"><text text-decoration="none" x="0" fill="#4b4b4b" font-size="10pt" font-family="noto_regular"  y="14">condition:</text><text text-decoration="none" x="62.828125" fill="#4b4b4b" font-size="10pt" font-family="noto_regular"  y="14"></text><text text-decoration="none" x="0" fill="#4b4b4b" font-size="10pt" font-family="noto_regular"  y="32">nicht&#160;</text><text text-decoration="none" x="34.59375" fill="#4b4b4b" font-size="10pt" font-family="noto_regular"  y="32">angemeldet</text><text text-decoration="none" x="109.984375" fill="#4b4b4b" font-size="10pt" font-family="noto_regular"  y="32"></text><text text-decoration="none" x="0" fill="#4b4b4b" font-size="10pt" font-family="noto_regular"  y="50">extension&#160;</text><text text-decoration="none" x="64.734375" fill="#4b4b4b" font-size="10pt" font-family="noto_regular"  y="50">point:</text><text text-decoration="none" x="101.421875" fill="#4b4b4b" font-size="10pt" font-family="noto_regular"  y="50"></text><text text-decoration="none" x="0" fill="#4b4b4b" font-size="10pt" font-family="noto_regular"  y="68">Authorisieren</text><text text-decoration="none" x="85.421875" fill="#4b4b4b" font-size="10pt" font-family="noto_regular"  y="68"></text></g></g><g id="iWX8yDGvxEC"><g><path d="M 2020,1160 L 2150,1070" fill="none" stroke="#B0AC99" stroke-width="2" stroke-linecap="round" stroke-linejoin="round" stroke-dasharray="2 3"/></g></g><g id="htbCDIM1Fu7"><g transform="translate(1820 490)"><rect x="0" y="0" width="489.99999999999994" height="70" fill="rgba(255,255,255,0.01)" stroke="rgba(255,255,255,0.01)"  stroke-dasharray="0 0"/></g><g transform="translate(1830, 500) rotate(0, 0, 0)" width="465.88" height="43.01"><text text-decoration="none" x="0" fill="#4b4b4b" font-size="24pt" font-family="noto_regular"  y="34">Kraken&#160;</text><text text-decoration="none" x="114.21875" fill="#4b4b4b" font-size="24pt" font-family="noto_regular"  y="34">AG&#160;</text><text text-decoration="none" x="166.28125" fill="#4b4b4b" font-size="24pt" font-family="noto_regular"  y="34">-&#160;</text><text text-decoration="none" x="185.46875" fill="#4b4b4b" font-size="24pt" font-family="noto_regular"  y="34">Use-Case-Diagram</text><text text-decoration="none" x="465.875" fill="#4b4b4b" font-size="10pt" font-family="noto_regular"  y="34"></text></g></g><g id="830PlfKT4sD"><g transform="translate(1790 860)"><ellipse cx="80" cy="30" rx="80" ry="30" fill="rgb(36,175,175)" stroke="#24afaf" stroke-width="2" stroke-linecap="round" stroke-linejoin="round" stroke-dasharray="0 0"/></g><g transform="translate(1800.73, 871.995) rotate(0, 69.27, 18.005)" width="138.54" height="36.01"><text text-decoration="none" x="0.004374999999996021" fill="#ffffff" font-size="10pt" font-family="noto_regular"  y="14">Reservierungsanfrage</text><text text-decoration="none" x="138.53562499999998" fill="#ffffff" font-size="10pt" font-family="noto_regular"  y="14"></text><text text-decoration="none" x="48.598124999999996" fill="#ffffff" font-size="10pt" font-family="noto_regular"  y="32">stellen</text><text text-decoration="none" x="89.941875" fill="#4b4b4b" font-size="10pt" font-family="noto_regular"  y="32"></text></g></g><g id="pTLW6DzZ1Cr"><g transform="translate(2270.0000000000005 830)"><path d="M 159.99999999999994,0 L 159.99999999999994,20 L 179.99999999999994,20 L 159.99999999999994,0 L 0,0 L 0,110 L 179.99999999999994,110 L 179.99999999999994,20" fill="rgb(255,255,255)" stroke="#4b4b4b" stroke-width="2" stroke-linecap="round" stroke-linejoin="round" stroke-dasharray="0 0"/></g><g transform="translate(2280.0000000000005, 837) rotate(0, 0, 0)" width="134.71" height="90"><text text-decoration="none" x="0" fill="#4b4b4b" font-size="10pt" font-family="noto_regular"  y="14">condition:</text><text text-decoration="none" x="62.828125" fill="#4b4b4b" font-size="10pt" font-family="noto_regular"  y="14"></text><text text-decoration="none" x="0" fill="#4b4b4b" font-size="10pt" font-family="noto_regular"  y="32">Kundendaten&#160;</text><text text-decoration="none" x="88.421875" fill="#4b4b4b" font-size="10pt" font-family="noto_regular"  y="32">nicht&#160;</text><text text-decoration="none" x="123.015625" fill="#4b4b4b" font-size="10pt" font-family="noto_regular"  y="32">in&#160;</text><text text-decoration="none" x="0" fill="#4b4b4b" font-size="10pt" font-family="noto_regular"  y="50">Datenbank</text><text text-decoration="none" x="68.828125" fill="#4b4b4b" font-size="10pt" font-family="noto_regular"  y="50"></text><text text-decoration="none" x="0" fill="#4b4b4b" font-size="10pt" font-family="noto_regular"  y="68">extension&#160;</text><text text-decoration="none" x="64.734375" fill="#4b4b4b" font-size="10pt" font-family="noto_regular"  y="68">point:</text><text text-decoration="none" x="101.421875" fill="#4b4b4b" font-size="10pt" font-family="noto_regular"  y="68"></text><text text-decoration="none" x="0" fill="#4b4b4b" font-size="10pt" font-family="noto_regular"  y="86">Registrierung</text><text text-decoration="none" x="85.296875" fill="#4b4b4b" font-size="10pt" font-family="noto_regular"  y="86"></text></g></g><g id="UqMxvAct7ab"><g transform="translate(1460 700)"><ellipse cx="20" cy="10" rx="10" ry="10" fill="rgb(255,255,255)" stroke="#FF3D3D" stroke-width="2" stroke-linecap="round" stroke-linejoin="round" stroke-dasharray="0 0"/><path d="M 20,20 L 20,48 L 40,80 M 20,48 L 0,80 M 2,30 L 38,30" fill="none" stroke="#FF3D3D" stroke-width="2" stroke-linecap="round" stroke-linejoin="round" stroke-dasharray="0 0"/><rect x="0" y="0" width="40" height="80" fill="rgba(255,255,255,0.01)" stroke="rgba(255,255,255,0.01)" stroke-width="2" stroke-linecap="round" stroke-linejoin="round" stroke-dasharray="0 0"/></g><g transform="translate(1450.765, 790) rotate(0, 29.235, 0)" width="58.47" height="18"><text text-decoration="none" x="0.0006249999999994316" fill="#545454" font-size="10pt" font-family="noto_regular"  y="14">Besucher</text><text text-decoration="none" x="58.469375" fill="#4b4b4b" font-size="10pt" font-family="noto_regular"  y="14"></text></g></g><g id="gluckHCu35o"><g><path d="M 1515,724 L 1816,777" fill="none" stroke="#7C7B7A" stroke-width="2" stroke-linecap="round" stroke-linejoin="round" stroke-dasharray="0 0"/></g></g><g id="G4Uw7eLYpTN"><g transform="translate(1460 920)"><ellipse cx="20" cy="10" rx="10" ry="10" fill="rgb(111,207,218)" stroke="#54A5AE" stroke-width="2" stroke-linecap="round" stroke-linejoin="round" stroke-dasharray="0 0"/><path d="M 20,20 L 20,48 L 40,80 M 20,48 L 0,80 M 2,30 L 38,30" fill="none" stroke="#54A5AE" stroke-width="2" stroke-linecap="round" stroke-linejoin="round" stroke-dasharray="0 0"/><rect x="0" y="0" width="40" height="80" fill="rgba(255,255,255,0.01)" stroke="rgba(255,255,255,0.01)" stroke-width="2" stroke-linecap="round" stroke-linejoin="round" stroke-dasharray="0 0"/></g><g transform="translate(1459.77, 1010) rotate(0, 20.23, 0)" width="40.46" height="18"><text text-decoration="none" x="0.0034375000000004263" fill="#54A5AE" font-size="10pt" font-family="noto_regular"  y="14">Kunde</text><text text-decoration="none" x="40.456562500000004" fill="#4b4b4b" font-size="10pt" font-family="noto_regular"  y="14"></text></g></g><g id="72W4PYLzSGC"><g><path d="M 1515,976 L 1810,960" fill="none" stroke="#7C7B7A" stroke-width="2" stroke-linecap="round" stroke-linejoin="round" stroke-dasharray="0 0"/></g></g><g id="0RnMpx515hB"><g><path d="M 1515,992 L 1810,1030" fill="none" stroke="#7C7B7A" stroke-width="2" stroke-linecap="round" stroke-linejoin="round" stroke-dasharray="0 0"/></g></g><g id="rnC0eJqp31A"><g><path d="M 1515,960 L 1790,890" fill="none" stroke="#7C7B7A" stroke-width="2" stroke-linecap="round" stroke-linejoin="round" stroke-dasharray="0 0"/></g></g><g id="DTilCA8NLI0"><g><path d="M 1515,772 L 1525,772 Q 1535,772 1535,782 L 1535,858 L 1535,934 Q 1535,944 1525,944 L 1515,944" fill="none" stroke="#7C7B7A" stroke-width="2" stroke-linecap="round" stroke-linejoin="round" stroke-dasharray="0 0"/><path d="M 1515,772 L 1523.695652173913,777.75 L 1523.695652173913,766.25 Z" fill="rgb(124,123,122)" stroke="#7C7B7A" stroke-width="2" stroke-linecap="round" stroke-linejoin="round"/></g></g><g id="Gs9XuGzwlxT"><g><path d="M 948,467 L 948,467" fill="none" stroke="#7C7B7A" stroke-width="2" stroke-linecap="round" stroke-linejoin="round" stroke-dasharray="0 0"/></g></g><g id="L1openKlf4n"><mask id="1ce73" x="2136" y="816" width="28" height="148" maskUnits="userSpaceOnUse"><rect x="2136" y="816" width="28" height="148" fill="white" /><rect x="2110.645" y="878" width="78.71" height="24" fill="black" /></mask><g mask="url(#1ce73)"><path d="M 2150,950 L 2150,830" fill="none" stroke="#7C7B7A" stroke-width="2" stroke-linecap="round" stroke-linejoin="round" stroke-dasharray="3 3"/><path d="M 2150,950 L 2156.497175141243,943.0434782608696 M 2150,950 L 2143.502824858757,943.0434782608696 Z" fill="rgb(255,255,255)" stroke="#7C7B7A" stroke-width="2" stroke-linecap="round" stroke-linejoin="round"/></g><g transform="translate(2113.645, 881)" width="72.71" height="18"><text text-decoration="none" x="0.0034374999999968736" fill="rgb(84, 84, 84)" font-size="10pt" font-family="noto_regular"  y="14">&#x3C;&#x3C;extend&#x3E;&#x3E;</text><text text-decoration="none" x="72.70656249999999" fill="#4b4b4b" font-size="10pt" font-family="noto_regular"  y="14"></text></g></g><g id="fpOX823yBob"><g><path d="M 2270,885 L 2150,830" fill="none" stroke="#B0AC99" stroke-width="2" stroke-linecap="round" stroke-linejoin="round" stroke-dasharray="2 3"/></g></g><g id="jn76isYR2do"><g transform="translate(2090 770)"><ellipse cx="60" cy="30" rx="60" ry="30" fill="rgb(36,175,175)" stroke="#24afaf" stroke-width="2" stroke-linecap="round" stroke-linejoin="round" stroke-dasharray="0 0"/></g><g transform="translate(2111.81, 791) rotate(0, 38.19, 9)" width="76.38" height="18"><text text-decoration="none" x="0.0024999999999977263" fill="#ffffff" font-size="10pt" font-family="noto_regular"  y="14">Registrieren</text><text text-decoration="none" x="76.3775" fill="#4b4b4b" font-size="10pt" font-family="noto_regular"  y="14"></text></g></g></svg>