<svg xmlns="http://www.w3.org/2000/svg" xmlns:xlink="http://www.w3.org/1999/xlink" xmlns:lucid="lucid" width="1462" height="1120"><g transform="translate(-64 -180)" lucid:page-tab-id=".Q4MUjXso07N"><path d="M0 0h1920v1760H0z" fill="#fff"/><path d="M260 288a8 8 0 0 1 8-8h904a8 8 0 0 1 8 8v944a8 8 0 0 1-8 8H268a8 8 0 0 1-8-8z" stroke="#333" fill-opacity="0"/><use xlink:href="#a" transform="matrix(1,0,0,1,268,288) translate(433.725 15.6)"/><path d="M260 208a8 8 0 0 1 8-8h902.97a8 8 0 0 1 8 8v25.16a8 8 0 0 1-8 8H268a8 8 0 0 1-8-8z" stroke="#000" stroke-opacity="0" stroke-width="2" fill="#fff" fill-opacity="0"/><use xlink:href="#b" transform="matrix(1,0,0,1,280.0000000000001,200) translate(374.522962962963 27.584444444444443)"/><path d="M557.83 239.8h333.32M557.86 239.8h-1.03M891.12 239.8h1.03" stroke="#a9afb8" stroke-width="2" fill="none"/><path d="M260 249.16a8 8 0 0 1 8-8h904a8 8 0 0 1 8 8V252a8 8 0 0 1-8 8H268a8 8 0 0 1-8-8z" stroke="#000" stroke-opacity="0" stroke-width="2" fill="#fff" fill-opacity="0"/><use xlink:href="#c" transform="matrix(1,0,0,1,280.00000000000045,241.1552239568988) translate(340.06 14.917037037037037)"/><use xlink:href="#d" transform="matrix(1,0,0,1,280.00000000000045,241.1552239568988) translate(427.97121399176956 14.917037037037037)"/><use xlink:href="#e" transform="matrix(1,0,0,1,280.00000000000045,241.1552239568988) translate(440.42069958847736 14.917037037037037)"/><use xlink:href="#f" transform="matrix(1,0,0,1,280.00000000000045,241.1552239568988) translate(487.07440329218105 14.917037037037037)"/><use xlink:href="#g" transform="matrix(1,0,0,1,280.00000000000045,241.1552239568988) translate(512.5682304526749 14.917037037037037)"/><path d="M179.75 309.75c0 10.9-8.84 19.75-19.75 19.75-10.9 0-19.75-8.84-19.75-19.75 0-10.9 8.84-19.75 19.75-19.75 10.9 0 19.75 8.84 19.75 19.75z" stroke="#333" fill="#fff"/><path d="M160 329.5v47.3a27.6 27.6 0 0 0 4.28 14.76L200 448m-40-63.2L120 448m0-98.75h80" stroke="#333" fill="none"/><path d="M120 298a8 8 0 0 1 8-8h64a8 8 0 0 1 8 8v164a8 8 0 0 1-8 8h-64a8 8 0 0 1-8-8z" fill="none"/><use xlink:href="#h" transform="matrix(1,0,0,1,40,448) translate(94 14.6)"/><path d="M179.75 679.75c0 10.9-8.84 19.75-19.75 19.75-10.9 0-19.75-8.84-19.75-19.75 0-10.9 8.84-19.75 19.75-19.75 10.9 0 19.75 8.84 19.75 19.75z" stroke="#333" fill="#fff"/><path d="M160 699.5v47.3a27.6 27.6 0 0 0 4.28 14.76L200 818m-40-63.2L120 818m0-98.75h80" stroke="#333" fill="none"/><path d="M120 668a8 8 0 0 1 8-8h64a8 8 0 0 1 8 8v164a8 8 0 0 1-8 8h-64a8 8 0 0 1-8-8z" fill="none"/><use xlink:href="#i" transform="matrix(1,0,0,1,40,818) translate(76.525 14.6)"/><path d="M1339.75 319.75c0 10.9-8.84 19.75-19.75 19.75-10.9 0-19.75-8.84-19.75-19.75 0-10.9 8.84-19.75 19.75-19.75 10.9 0 19.75 8.84 19.75 19.75z" stroke="#333" fill="#fff"/><path d="M1320 339.5v47.3a27.6 27.6 0 0 0 4.28 14.76L1360 458m-40-63.2l-40 63.2m0-98.75h80" stroke="#333" fill="none"/><path d="M1280 308a8 8 0 0 1 8-8h64a8 8 0 0 1 8 8v164a8 8 0 0 1-8 8h-64a8 8 0 0 1-8-8z" fill="none"/><use xlink:href="#j" transform="matrix(1,0,0,1,1200,458) translate(92.075 14.6)"/><path d="M1339.75 619.75c0 10.9-8.84 19.75-19.75 19.75-10.9 0-19.75-8.84-19.75-19.75 0-10.9 8.84-19.75 19.75-19.75 10.9 0 19.75 8.84 19.75 19.75z" stroke="#333" fill="#fff"/><path d="M1320 639.5v47.3a27.6 27.6 0 0 0 4.28 14.76L1360 758m-40-63.2l-40 63.2m0-98.75h80" stroke="#333" fill="none"/><path d="M1280 608a8 8 0 0 1 8-8h64a8 8 0 0 1 8 8v164a8 8 0 0 1-8 8h-64a8 8 0 0 1-8-8z" fill="none"/><use xlink:href="#k" transform="matrix(1,0,0,1,1200,758) translate(99.5 14.6)"/><path d="M620 380c0 33.14-35.82 60-80 60s-80-26.86-80-60 35.82-60 80-60 80 26.86 80 60z" stroke="#333" fill="#fff"/><use xlink:href="#l" transform="matrix(1,0,0,1,484,344) translate(31 28.799999999999997)"/><use xlink:href="#m" transform="matrix(1,0,0,1,484,344) translate(20.049999999999997 50.4)"/><path d="M161 368.95l298 11.03M161 368.95l-3.5-.13" stroke="#333" fill="none"/><path d="M459.52 379.5l-.02.5v.5l-.53-.02.04-1z" stroke="#333" stroke-width=".05" fill="#333"/><path d="M1319 378.93H620.97M1319 378.93h3.5" stroke="#333" fill="none"/><path d="M621 379.43h-.5l-.05-1h.54z" stroke="#333" stroke-width=".05" fill="#333"/><path d="M159.18 750H82a12 12 0 0 1-12-12V392a12 12 0 0 1 12-12h61.3M159.17 750h3.5" stroke="#333" fill="none"/><path d="M158.07 380l-14.27 4.64v-9.28z" stroke="#333" fill="#333"/><path d="M763.12 479.5v1h-5.08v-1zm-10.15 0v1h-10.14v-1zm-15.2-.02v1H727.6v-1zm-15.22 0v1l-10.15-.02v-1zm-15.22-.02v1H697.2v-1zm-121.7-.08v1h-10.15v-1zm-15.22 0v1l-10.14-.02v-1zm-23.62-1.13l1.67.7 1.73.4h5v1h-5.12l-1.92-.46-1.82-.76-1.63-1 .5-.86zm-6.28-10.27l.14 1.82.42 1.75.7 1.7-.9.4-.75-1.8-.45-1.9-.15-1.93v-4.52h1zm0-8.98h-1v-9h1zm0-13.5h-1V441h1z" stroke="#333" stroke-width=".05" fill="#333"/><path d="M540 440.5h.5v.5h-1v-.52z" fill="#333"/><path d="M540 440.48h.52v.56h-1.04v-.58zm-.48.5h.96v-.46h-.96z" stroke="#333" stroke-width=".05" fill="#333"/><path d="M777.88 480l-14.26 4.64v-9.28z" fill="#333"/><path d="M779.5 480l-16.38 5.32v-10.64zm-15.38 3.95l12.14-3.95-12.14-3.95z" stroke="#333" stroke-width=".05" fill="#333"/><use xlink:href="#n" transform="matrix(1,0,0,1,586.0499999935012,469.2) translate(0.005000000000002558 14.4)"/><path d="M940 480c0 33.14-35.82 60-80 60s-80-26.86-80-60 35.82-60 80-60 80 26.86 80 60z" stroke="#333" fill="#fff"/><use xlink:href="#l" transform="matrix(1,0,0,1,804,444) translate(31 28.799999999999997)"/><use xlink:href="#o" transform="matrix(1,0,0,1,804,444) translate(14.049999999999997 50.4)"/><path d="M941 480h177.1a12 12 0 0 1 12 12v186a12 12 0 0 0 12 12h177.08" stroke="#333" fill="none"/><path d="M941 480.5h-.52l.02-.5v-.5h.5z" stroke="#333" stroke-width=".05" fill="#333"/><path d="M1319.17 690h3.5" stroke="#333" fill="none"/><path d="M640 640c0 44.18-44.77 80-100 80s-100-35.82-100-80 44.77-80 100-80 100 35.82 100 80zm-200 0h200" stroke="#333" fill="#fff"/><use xlink:href="#p" transform="matrix(1,0,0,1,470,576) translate(29.025 24.799999999999997)"/><use xlink:href="#q" transform="matrix(1,0,0,1,470,576) translate(33.525 46.4)"/><use xlink:href="#r" transform="matrix(1,0,0,1,470,664) translate(1.5499999999999972 14.4)"/><use xlink:href="#s" transform="matrix(1,0,0,1,470,664) translate(12.049999999999997 36)"/><use xlink:href="#t" transform="matrix(1,0,0,1,440,640) translate(27.174999999999983 15.6)"/><use xlink:href="#u" transform="matrix(1,0,0,1,440,640) translate(117.975 15.6)"/><path d="M160.9 369.53l302.3 217.9M160.92 369.54l-2.85-2.05" stroke="#333" fill="none"/><path d="M463.98 587.38l-.75.7-.34-.25.58-.8z" stroke="#333" stroke-width=".05" fill="#333"/><path d="M1339.75 899.75c0 10.9-8.84 19.75-19.75 19.75-10.9 0-19.75-8.84-19.75-19.75 0-10.9 8.84-19.75 19.75-19.75 10.9 0 19.75 8.84 19.75 19.75z" stroke="#333" fill="#fff"/><path d="M1320 919.5v47.3a27.6 27.6 0 0 0 4.28 14.76L1360 1038m-40-63.2l-40 63.2m0-98.75h80" stroke="#333" fill="none"/><path d="M1280 888a8 8 0 0 1 8-8h64a8 8 0 0 1 8 8v164a8 8 0 0 1-8 8h-64a8 8 0 0 1-8-8z" fill="none"/><use xlink:href="#v" transform="matrix(1,0,0,1,1200,1038) translate(74.6 14.6)"/><path d="M1321 958.93h187a12 12 0 0 0 12-12V402a12 12 0 0 0-12-12h-170.92M1321 958.93h-3.5" stroke="#333" fill="none"/><path d="M1322.3 390l14.28-4.64v9.28z" stroke="#333" fill="#333"/><path d="M161 738.93h57a12 12 0 0 1 12 12V1148a12 12 0 0 0 12 12h177M161 738.93h-3.5" stroke="#333" fill="none"/><path d="M419.5 1160v.5h-.5v-1h.52z" stroke="#333" stroke-width=".05" fill="#333"/><path d="M580 1160c0 33.14-35.82 60-80 60s-80-26.86-80-60 35.82-60 80-60 80 26.86 80 60z" stroke="#333" fill="#fff"/><use xlink:href="#w" transform="matrix(1,0,0,1,444,1124) translate(6.624999999999993 28.799999999999997)"/><use xlink:href="#x" transform="matrix(1,0,0,1,444,1124) translate(35.525 50.4)"/><path d="M580.98 1159.88l738.22-189.76" stroke="#333" fill="none"/><path d="M581.12 1160.36l-.64.16.02-.5v-.53l.37-.1z" stroke="#333" stroke-width=".05" fill="#333"/><path d="M1319.2 970.13l3.4-.88" stroke="#333" fill="none"/><path d="M646.18 640.5h-4.77v-1h4.78zm14.33 0h-9.54v-1h9.55zm7 0h-2.2v-1h2.2zm121.95 0h-9.55v-1h9.55zm9.55 0h-4.78v-1H799zm-23.88 0h-2.62v-1h2.62z" stroke="#333" stroke-width=".05" fill="#333"/><path d="M658.95 630.25l-16.5 9.75 16.5 9.75-.5.86L640.5 640l17.94-10.6z" stroke="#333" stroke-width=".05" fill="#333"/><path d="M799.5 640v.5h-.5v-1h.52z" fill="#333"/><path d="M799.52 640v.53h-.56v-1.05h.58zm-.5-.48v.96h.46v-.96z" stroke="#333" stroke-width=".05" fill="#333"/><use xlink:href="#y" transform="matrix(1,0,0,1,667.500011339062,629.2) translate(0.005000000000002558 14.4)"/><path d="M960 640c0 33.14-35.82 60-80 60s-80-26.86-80-60 35.82-60 80-60 80 26.86 80 60z" stroke="#333" fill="#fff"/><use xlink:href="#z" transform="matrix(1,0,0,1,824,604) translate(6.599999999999994 39.6)"/><use xlink:href="#x" transform="matrix(1,0,0,1,824,604) translate(64.44999999999999 39.6)"/><path d="M540.5 819h-1v-4.65h1zm0-9.3h-1v-9.3h1zm0-13.94h-1v-9.3h1zm0-13.94h-1v-1.02h1zm0-22.62h-1v-.6h1zm0-5.26h-1v-9.3h1zm0-13.94h-1v-9.3h1zm0-13.94h-1v-4.65h1z" stroke="#333" stroke-width=".05" fill="#333"/><path d="M550.6 738.44l-.85.5-9.75-16.48-9.75 16.5-.86-.52L540 720.5z" stroke="#333" stroke-width=".05" fill="#333"/><path d="M540.5 819.52l-.5-.02h-.5v-.5h1z" fill="#333"/><path d="M540.52 819.54l-.5-.02h-.54v-.56h1.04zm-1-.53v.48h.96v-.47z" stroke="#333" stroke-width=".05" fill="#333"/><use xlink:href="#y" transform="matrix(1,0,0,1,487.5,759.2000113240183) translate(0.005000000000002558 14.4)"/><path d="M620 880c0 33.14-35.82 60-80 60s-80-26.86-80-60 35.82-60 80-60 80 26.86 80 60z" stroke="#333" fill="#fff"/><use xlink:href="#A" transform="matrix(1,0,0,1,484,844) translate(20.074999999999996 28.799999999999997)"/><use xlink:href="#B" transform="matrix(1,0,0,1,484,844) translate(48.974999999999994 28.799999999999997)"/><use xlink:href="#q" transform="matrix(1,0,0,1,484,844) translate(19.525 50.4)"/><path d="M838.6 939.5v1h-4.7v-1zm-9.4 0v1l-9.37-.03v-1zm-14.05-.04v1h-9.38v-1zm-14.07-.02v1h-9.38v-1zm-14.07-.02v1h-9.37v-1zm-14.05-.02v1h-9.38v-1zm-14.07-.02v1h-9.38v-1zm-22.1-1.13l1.67.7 1.73.4h4.63v1h-4.74l-1.92-.46-1.82-.76-1.63-1 .5-.86zm-6.28-10.27l.14 1.82.42 1.75.7 1.7-.9.4-.75-1.8-.45-1.9-.15-1.93-.02-4.23h1zm-.1-28.78h-1v-.66h1zm-1.26-12.88l.75 1.82.45 1.92.02 4.27h-1l-.02-4.15-.4-1.73-.7-1.67-.97-1.57.85-.5zm-9.18-6.67l1.9.46 1.78.75-.38.92-1.7-.7-1.76-.43-1.82-.14h-5.37v-1h5.42zm-93.57.85H621v-1h5.4zm16.16 0h-10.78v-1h10.78zm16.16 0h-10.78v-1h10.78zm16.17 0h-10.8v-1h10.8zm16.16 0h-10.78v-1h10.78zm16.16 0h-10.78v-1h10.78z" stroke="#333" stroke-width=".05" fill="#333"/><path d="M621 880.5h-.52l.02-.5v-.5h.5z" fill="#333"/><path d="M621.04 880.52h-.58l.02-.5v-.54h.56zm-.52-1v.96h.47v-.96zM839.5 940l-17.94 10.6-.5-.85 16.48-9.75-16.5-9.75.52-.86z" stroke="#333" stroke-width=".05" fill="#333"/><use xlink:href="#n" transform="matrix(1,0,0,1,676.05,899.2) translate(0.005000000000002558 14.4)"/><path d="M1000 940c0 33.14-35.82 60-80 60s-80-26.86-80-60 35.82-60 80-60 80 26.86 80 60z" stroke="#333" fill="#fff"/><use xlink:href="#C" transform="matrix(1,0,0,1,864,904) translate(6.549999999999997 39.6)"/><use xlink:href="#D" transform="matrix(1,0,0,1,864,904) translate(54.5 39.6)"/><path d="M1339.75 1119.75c0 10.9-8.84 19.75-19.75 19.75-10.9 0-19.75-8.84-19.75-19.75 0-10.9 8.84-19.75 19.75-19.75 10.9 0 19.75 8.84 19.75 19.75z" stroke="#333" fill="#fff"/><path d="M1320 1139.5v47.3a27.6 27.6 0 0 0 4.28 14.76L1360 1258m-40-63.2l-40 63.2m0-98.75h80" stroke="#333" fill="none"/><path d="M1280 1108a8 8 0 0 1 8-8h64a8 8 0 0 1 8 8v164a8 8 0 0 1-8 8h-64a8 8 0 0 1-8-8z" fill="none"/><use xlink:href="#E" transform="matrix(1,0,0,1,1200,1258) translate(19.625 14.6)"/><use xlink:href="#F" transform="matrix(1,0,0,1,1200,1258) translate(121.47500000000001 14.6)"/><path d="M1319.1 1178.63l-203.23-152.22c1.66-2.2 1.2-5.33-1-7-2.2-1.64-5.35-1.2-7 1.02L1000.9 940.3M1319.1 1178.62l2.8 2.1" stroke="#333" fill="none"/><path d="M1001.2 939.9l-.6.8-.12-.1.02-.6v-.63z" stroke="#333" stroke-width=".05" fill="#333"/><path d="M1000.73 939.56l128.02-245.13c-2.45-1.28-3.4-4.3-2.12-6.74 1.28-2.46 4.3-3.4 6.75-2.13l148.4-284.13" stroke="#333" fill="none"/><path d="M1001.18 939.78l-.72 1.37.04-1.14V939.43z" stroke="#333" stroke-width=".05" fill="#333"/><path d="M1281.76 401.45l.24-.45" stroke="#333" fill="none"/><path d="M280 760h136l24 24v96H280z" stroke="#333" fill="#fff"/><path d="M416 760.48V784h23.52" stroke="#333" fill="#fff"/><g><use xlink:href="#G" transform="matrix(1,0,0,1,292,774.4) translate(29.549999999999997 14.4)"/><use xlink:href="#H" transform="matrix(1,0,0,1,292,774.4) translate(7.049999999999997 36)"/><use xlink:href="#I" transform="matrix(1,0,0,1,292,774.4) translate(22.025 57.6)"/><use xlink:href="#J" transform="matrix(1,0,0,1,292,774.4) translate(5.049999999999997 79.20000000000002)"/><use xlink:href="#K" transform="matrix(1,0,0,1,292,774.4) translate(87 79.20000000000002)"/><use xlink:href="#L" transform="matrix(1,0,0,1,292,774.4) translate(10.049999999999997 100.80000000000001)"/></g><path d="M539.68 818.87l-.3.95-4.6-1.53.3-.96zm-9.18-3.06l-.3.96-9.2-3.07.32-.95zm-13.77-4.58l-.32.94-9.17-3.06.32-.94zm-13.77-4.6l-.32.95-9.18-3.06.3-.94zm-13.78-4.6l-.3.96-9.2-3.06.32-.95zm-13.77-4.58l-.3.95-9.2-3.07.33-.95zm-13.76-4.6l-.32.96-9.18-3.06.3-.95zm-13.78-4.58l-.3.95-9.2-3.05.32-.95zm-13.77-4.6l-.33.96-9.18-3.06.3-.95zm-13.78-4.58l-.32.95-9.18-3.06.3-.95zm-13.78-4.6l-.3.96-9.2-3.06.32-.95zm-13.77-4.58l-.32.94-9.18-3.06.32-.94zM379 765.3l-.32.95-9.18-3.06.3-.96zm-13.78-4.6l-.3.96-4.6-1.53.3-.95z" stroke="#333" stroke-width=".05" fill="#333"/><path d="M360.33 760.14l-1.9-.64h2.1z" fill="#333"/><path d="M360.34 760.17l-2.08-.7h2.32zm-1.77-.64l1.74.57.2-.58z" stroke="#333" stroke-width=".05" fill="#333"/><path d="M541.74 819.55l-1.73-.05h-.54l.2-.64z" fill="#333"/><path d="M541.9 819.58l-1.9-.06h-.58l.24-.7zm-2.4-.1h.5l1.57.04-1.88-.62z" stroke="#333" stroke-width=".05" fill="#333"/><path d="M740 740h136l24 24v96H740z" stroke="#333" fill="#fff"/><path d="M876 740.48V764h23.52" stroke="#333" fill="#fff"/><g><use xlink:href="#G" transform="matrix(1,0,0,1,752,754.4) translate(29.549999999999997 14.4)"/><use xlink:href="#H" transform="matrix(1,0,0,1,752,754.4) translate(7.049999999999997 36)"/><use xlink:href="#I" transform="matrix(1,0,0,1,752,754.4) translate(22.025 57.6)"/><use xlink:href="#J" transform="matrix(1,0,0,1,752,754.4) translate(5.049999999999997 79.20000000000002)"/><use xlink:href="#K" transform="matrix(1,0,0,1,752,754.4) translate(87 79.20000000000002)"/><use xlink:href="#L" transform="matrix(1,0,0,1,752,754.4) translate(10.049999999999997 100.80000000000001)"/></g><path d="M819.9 739l-.97-4.68m-.96-4.7l-1.94-9.38m-.96-4.7l-1.94-9.37m-.96-4.7l-1.94-9.37m-.96-4.7l-1.94-9.38m-.96-4.7l-1.94-9.37m-.96-4.7l-1.94-9.38m-.96-4.7l-.97-4.68" stroke="#333" fill="none"/><path d="M820.5 739.5h-1l-.1-.4 1-.2zM799.57 637.85l-.07 2.14v.52l-.4.08-.7-3.44.98-.2z" stroke="#333" stroke-width=".05" fill="#333"/><defs><path fill="#333" d="M205 0l-28-72H64L36 0H1l101-248h38L239 0h-34zm-38-99l-47-123c-12 45-31 82-46 123h93" id="M"/><path fill="#333" d="M127-220V0H93v-220H8v-28h204v28h-85" id="N"/><path fill="#333" d="M240 0l2-218c-23 76-54 145-80 218h-23L58-218 59 0H30v-248h44l77 211c21-75 51-140 76-211h43V0h-30" id="O"/><g id="a"><use transform="matrix(0.05,0,0,0.05,0,0)" xlink:href="#M"/><use transform="matrix(0.05,0,0,0.05,10.65,0)" xlink:href="#N"/><use transform="matrix(0.05,0,0,0.05,21.6,0)" xlink:href="#O"/></g><path fill="#a9afb8" d="M240-174c0 40-23 61-54 70L253 0h-59l-57-94H76V0H24v-248c93 4 217-23 216 74zM76-134c48-2 112 12 112-38 0-48-66-32-112-35v73" id="P"/><path fill="#a9afb8" d="M185-48c-13 30-37 53-82 52C43 2 14-33 14-96s30-98 90-98c62 0 83 45 84 108H66c0 31 8 55 39 56 18 0 30-7 34-22zm-45-69c5-46-57-63-70-21-2 6-4 13-4 21h74" id="Q"/><path fill="#a9afb8" d="M137-138c1-29-70-34-71-4 15 46 118 7 119 86 1 83-164 76-172 9l43-7c4 19 20 25 44 25 33 8 57-30 24-41C81-84 22-81 20-136c-2-80 154-74 161-7" id="R"/><path fill="#a9afb8" d="M115-3C79 11 28 4 28-45v-112H4v-33h27l15-45h31v45h36v33H77v99c-1 23 16 31 38 25v30" id="S"/><path fill="#a9afb8" d="M133-34C117-15 103 5 69 4 32 3 11-16 11-54c-1-60 55-63 116-61 1-26-3-47-28-47-18 1-26 9-28 27l-52-2c7-38 36-58 82-57s74 22 75 68l1 82c-1 14 12 18 25 15v27c-30 8-71 5-69-32zm-48 3c29 0 43-24 42-57-32 0-66-3-65 30 0 17 8 27 23 27" id="T"/><path fill="#a9afb8" d="M85 4C-2 5 27-109 22-190h50c7 57-23 150 33 157 60-5 35-97 40-157h50l1 190h-47c-2-12 1-28-3-38-12 25-28 42-61 42" id="U"/><path fill="#a9afb8" d="M135-150c-39-12-60 13-60 57V0H25l-1-190h47c2 13-1 29 3 40 6-28 27-53 61-41v41" id="V"/><path fill="#a9afb8" d="M135-194c87-1 58 113 63 194h-50c-7-57 23-157-34-157-59 0-34 97-39 157H25l-1-190h47c2 12-1 28 3 38 12-26 28-41 61-42" id="W"/><g id="b"><use transform="matrix(0.0728395061728395,0,0,0.0728395061728395,0,0)" xlink:href="#P"/><use transform="matrix(0.0728395061728395,0,0,0.0728395061728395,18.86543209876543,0)" xlink:href="#Q"/><use transform="matrix(0.0728395061728395,0,0,0.0728395061728395,33.43333333333333,0)" xlink:href="#R"/><use transform="matrix(0.0728395061728395,0,0,0.0728395061728395,48.00123456790123,0)" xlink:href="#S"/><use transform="matrix(0.0728395061728395,0,0,0.0728395061728395,56.66913580246913,0)" xlink:href="#T"/><use transform="matrix(0.0728395061728395,0,0,0.0728395061728395,71.23703703703703,0)" xlink:href="#U"/><use transform="matrix(0.0728395061728395,0,0,0.0728395061728395,87.18888888888888,0)" xlink:href="#V"/><use transform="matrix(0.0728395061728395,0,0,0.0728395061728395,97.38641975308641,0)" xlink:href="#T"/><use transform="matrix(0.0728395061728395,0,0,0.0728395061728395,111.95432098765431,0)" xlink:href="#W"/><use transform="matrix(0.0728395061728395,0,0,0.0728395061728395,127.90617283950617,0)" xlink:href="#S"/></g><path fill="#a9afb8" d="M30 0v-248h187v28H63v79h144v27H63v87h162V0H30" id="X"/><path fill="#a9afb8" d="M108 0H70L1-190h34L89-25l56-165h34" id="Y"/><path fill="#a9afb8" d="M24-231v-30h32v30H24zM24 0v-190h32V0H24" id="Z"/><path fill="#a9afb8" d="M24 0v-261h32V0H24" id="aa"/><path fill="#a9afb8" d="M266 0h-40l-56-210L115 0H75L2-248h35L96-30l15-64 43-154h32l59 218 59-218h35" id="ab"/><path fill="#a9afb8" d="M100-194c63 0 86 42 84 106H49c0 40 14 67 53 68 26 1 43-12 49-29l28 8c-11 28-37 45-77 45C44 4 14-33 15-96c1-61 26-98 85-98zm52 81c6-60-76-77-97-28-3 7-6 17-6 28h103" id="ac"/><path fill="#a9afb8" d="M141-36C126-15 110 5 73 4 37 3 15-17 15-53c-1-64 63-63 125-63 3-35-9-54-41-54-24 1-41 7-42 31l-33-3c5-37 33-52 76-52 45 0 72 20 72 64v82c-1 20 7 32 28 27v20c-31 9-61-2-59-35zM48-53c0 20 12 33 32 33 41-3 63-29 60-74-43 2-92-5-92 41" id="ad"/><path fill="#a9afb8" d="M135-143c-3-34-86-38-87 0 15 53 115 12 119 90S17 21 10-45l28-5c4 36 97 45 98 0-10-56-113-15-118-90-4-57 82-63 122-42 12 7 21 19 24 35" id="ae"/><g id="c"><use transform="matrix(0.04248971193415638,0,0,0.04248971193415638,0,0)" xlink:href="#X"/><use transform="matrix(0.04248971193415638,0,0,0.04248971193415638,10.19753086419753,0)" xlink:href="#Y"/><use transform="matrix(0.04248971193415638,0,0,0.04248971193415638,17.845679012345677,0)" xlink:href="#Z"/><use transform="matrix(0.04248971193415638,0,0,0.04248971193415638,21.20236625514403,0)" xlink:href="#aa"/><use transform="matrix(0.04248971193415638,0,0,0.04248971193415638,24.559053497942386,0)" xlink:href="#ab"/><use transform="matrix(0.04248971193415638,0,0,0.04248971193415638,38.665637860082306,0)" xlink:href="#ac"/><use transform="matrix(0.04248971193415638,0,0,0.04248971193415638,47.163580246913575,0)" xlink:href="#ad"/><use transform="matrix(0.04248971193415638,0,0,0.04248971193415638,55.661522633744866,0)" xlink:href="#ae"/><use transform="matrix(0.04248971193415638,0,0,0.04248971193415638,63.309670781893004,0)" xlink:href="#ac"/><use transform="matrix(0.04248971193415638,0,0,0.04248971193415638,71.80761316872427,0)" xlink:href="#aa"/></g><path fill="#a9afb8" d="M32 76v-337h29V76H32" id="af"/><use transform="matrix(0.04248971193415638,0,0,0.04248971193415638,0,0)" xlink:href="#af" id="d"/><path fill="#a9afb8" d="M240 0l2-218c-23 76-54 145-80 218h-23L58-218 59 0H30v-248h44l77 211c21-75 51-140 76-211h43V0h-30" id="ag"/><path fill="#a9afb8" d="M114-163C36-179 61-72 57 0H25l-1-190h30c1 12-1 29 2 39 6-27 23-49 58-41v29" id="ah"/><path fill="#a9afb8" d="M96-169c-40 0-48 33-48 73s9 75 48 75c24 0 41-14 43-38l32 2c-6 37-31 61-74 61-59 0-76-41-82-99-10-93 101-131 147-64 4 7 5 14 7 22l-32 3c-4-21-16-35-41-35" id="ai"/><path fill="#a9afb8" d="M106-169C34-169 62-67 57 0H25v-261h32l-1 103c12-21 28-36 61-36 89 0 53 116 60 194h-32v-121c2-32-8-49-39-48" id="aj"/><g id="e"><use transform="matrix(0.04248971193415638,0,0,0.04248971193415638,0,0)" xlink:href="#ag"/><use transform="matrix(0.04248971193415638,0,0,0.04248971193415638,12.704423868312757,0)" xlink:href="#ad"/><use transform="matrix(0.04248971193415638,0,0,0.04248971193415638,21.20236625514403,0)" xlink:href="#ah"/><use transform="matrix(0.04248971193415638,0,0,0.04248971193415638,26.25864197530864,0)" xlink:href="#ai"/><use transform="matrix(0.04248971193415638,0,0,0.04248971193415638,33.90679012345679,0)" xlink:href="#aj"/></g><path fill="#a9afb8" d="M126-127c33 6 58 20 58 59 0 88-139 92-164 29-3-8-5-16-6-25l32-3c6 27 21 44 54 44 32 0 52-15 52-46 0-38-36-46-79-43v-28c39 1 72-4 72-42 0-27-17-43-46-43-28 0-47 15-49 41l-32-3c6-42 35-63 81-64 48-1 79 21 79 65 0 36-21 52-52 59" id="ak"/><path fill="#a9afb8" d="M27 0v-27h64v-190l-56 39v-29l58-41h29v221h61V0H27" id="al"/><path fill="#a9afb8" d="M68-38c1 34 0 65-14 84H32c9-13 17-26 17-46H33v-38h35" id="am"/><g id="f"><use transform="matrix(0.04248971193415638,0,0,0.04248971193415638,0,0)" xlink:href="#ak"/><use transform="matrix(0.04248971193415638,0,0,0.04248971193415638,8.497942386831275,0)" xlink:href="#al"/><use transform="matrix(0.04248971193415638,0,0,0.04248971193415638,16.99588477366255,0)" xlink:href="#am"/></g><path fill="#a9afb8" d="M101-251c82-7 93 87 43 132L82-64C71-53 59-42 53-27h129V0H18c2-99 128-94 128-182 0-28-16-43-45-43s-46 15-49 41l-32-3c6-41 34-60 81-64" id="an"/><path fill="#a9afb8" d="M101-251c68 0 85 55 85 127S166 4 100 4C33 4 14-52 14-124c0-73 17-127 87-127zm-1 229c47 0 54-49 54-102s-4-102-53-102c-51 0-55 48-55 102 0 53 5 102 54 102" id="ao"/><g id="g"><use transform="matrix(0.04248971193415638,0,0,0.04248971193415638,0,0)" xlink:href="#an"/><use transform="matrix(0.04248971193415638,0,0,0.04248971193415638,8.497942386831275,0)" xlink:href="#ao"/><use transform="matrix(0.04248971193415638,0,0,0.04248971193415638,16.99588477366255,0)" xlink:href="#an"/><use transform="matrix(0.04248971193415638,0,0,0.04248971193415638,25.493827160493822,0)" xlink:href="#an"/></g><path fill="#333" d="M194 0L95-120 63-95V0H30v-248h33v124l119-124h40L117-140 236 0h-42" id="ap"/><path fill="#333" d="M84 4C-5 8 30-112 23-190h32v120c0 31 7 50 39 49 72-2 45-101 50-169h31l1 190h-30c-1-10 1-25-2-33-11 22-28 36-60 37" id="aq"/><path fill="#333" d="M117-194c89-4 53 116 60 194h-32v-121c0-31-8-49-39-48C34-167 62-67 57 0H25l-1-190h30c1 10-1 24 2 32 11-22 29-35 61-36" id="ar"/><path fill="#333" d="M85-194c31 0 48 13 60 33l-1-100h32l1 261h-30c-2-10 0-23-3-31C134-8 116 4 85 4 32 4 16-35 15-94c0-66 23-100 70-100zm9 24c-40 0-46 34-46 75 0 40 6 74 45 74 42 0 51-32 51-76 0-42-9-74-50-73" id="as"/><path fill="#333" d="M100-194c63 0 86 42 84 106H49c0 40 14 67 53 68 26 1 43-12 49-29l28 8c-11 28-37 45-77 45C44 4 14-33 15-96c1-61 26-98 85-98zm52 81c6-60-76-77-97-28-3 7-6 17-6 28h103" id="at"/><g id="h"><use transform="matrix(0.05,0,0,0.05,0,0)" xlink:href="#ap"/><use transform="matrix(0.05,0,0,0.05,12,0)" xlink:href="#aq"/><use transform="matrix(0.05,0,0,0.05,22,0)" xlink:href="#ar"/><use transform="matrix(0.05,0,0,0.05,32,0)" xlink:href="#as"/><use transform="matrix(0.05,0,0,0.05,42,0)" xlink:href="#at"/></g><path fill="#333" d="M137 0h-34L2-248h35l83 218 83-218h36" id="au"/><path fill="#333" d="M33 0v-248h34V0H33" id="av"/><path fill="#333" d="M30-248c87 1 191-15 191 75 0 78-77 80-158 76V0H30v-248zm33 125c57 0 124 11 124-50 0-59-68-47-124-48v98" id="aw"/><path fill="#333" d="M16-82v-28h88v28H16" id="ax"/><g id="i"><use transform="matrix(0.05,0,0,0.05,0,0)" xlink:href="#au"/><use transform="matrix(0.05,0,0,0.05,12,0)" xlink:href="#av"/><use transform="matrix(0.05,0,0,0.05,17,0)" xlink:href="#aw"/><use transform="matrix(0.05,0,0,0.05,29,0)" xlink:href="#ax"/><use transform="matrix(0.05,0,0,0.05,34.95,0)" xlink:href="#ap"/><use transform="matrix(0.05,0,0,0.05,46.95,0)" xlink:href="#aq"/><use transform="matrix(0.05,0,0,0.05,56.95,0)" xlink:href="#ar"/><use transform="matrix(0.05,0,0,0.05,66.95,0)" xlink:href="#as"/><use transform="matrix(0.05,0,0,0.05,76.95,0)" xlink:href="#at"/></g><path fill="#333" d="M24 0v-261h32V0H24" id="ay"/><path fill="#333" d="M114-163C36-179 61-72 57 0H25l-1-190h30c1 12-1 29 2 39 6-27 23-49 58-41v29" id="az"/><g id="j"><use transform="matrix(0.05,0,0,0.05,0,0)" xlink:href="#ap"/><use transform="matrix(0.05,0,0,0.05,12,0)" xlink:href="#at"/><use transform="matrix(0.05,0,0,0.05,22,0)" xlink:href="#ay"/><use transform="matrix(0.05,0,0,0.05,25.950000000000003,0)" xlink:href="#ay"/><use transform="matrix(0.05,0,0,0.05,29.899999999999995,0)" xlink:href="#ar"/><use transform="matrix(0.05,0,0,0.05,39.9,0)" xlink:href="#at"/><use transform="matrix(0.05,0,0,0.05,49.9,0)" xlink:href="#az"/></g><path fill="#333" d="M100-194c62-1 85 37 85 99 1 63-27 99-86 99S16-35 15-95c0-66 28-99 85-99zM99-20c44 1 53-31 53-75 0-43-8-75-51-75s-53 32-53 75 10 74 51 75" id="aA"/><path fill="#333" d="M96-169c-40 0-48 33-48 73s9 75 48 75c24 0 41-14 43-38l32 2c-6 37-31 61-74 61-59 0-76-41-82-99-10-93 101-131 147-64 4 7 5 14 7 22l-32 3c-4-21-16-35-41-35" id="aB"/><path fill="#333" d="M106-169C34-169 62-67 57 0H25v-261h32l-1 103c12-21 28-36 61-36 89 0 53 116 60 194h-32v-121c2-32-8-49-39-48" id="aC"/><g id="k"><use transform="matrix(0.05,0,0,0.05,0,0)" xlink:href="#ap"/><use transform="matrix(0.05,0,0,0.05,12,0)" xlink:href="#aA"/><use transform="matrix(0.05,0,0,0.05,22,0)" xlink:href="#aB"/><use transform="matrix(0.05,0,0,0.05,31,0)" xlink:href="#aC"/></g><path d="M30 0v-248h187v28H63v79h144v27H63v87h162V0H30" id="aD"/><path d="M135-143c-3-34-86-38-87 0 15 53 115 12 119 90S17 21 10-45l28-5c4 36 97 45 98 0-10-56-113-15-118-90-4-57 82-63 122-42 12 7 21 19 24 35" id="aE"/><path d="M100-194c63 0 86 42 84 106H49c0 40 14 67 53 68 26 1 43-12 49-29l28 8c-11 28-37 45-77 45C44 4 14-33 15-96c1-61 26-98 85-98zm52 81c6-60-76-77-97-28-3 7-6 17-6 28h103" id="aF"/><path d="M117-194c89-4 53 116 60 194h-32v-121c0-31-8-49-39-48C34-167 62-67 57 0H25l-1-190h30c1 10-1 24 2 32 11-22 29-35 61-36" id="aG"/><g id="l"><use transform="matrix(0.05,0,0,0.05,0,0)" xlink:href="#aD"/><use transform="matrix(0.05,0,0,0.05,12,0)" xlink:href="#aE"/><use transform="matrix(0.05,0,0,0.05,21,0)" xlink:href="#aE"/><use transform="matrix(0.05,0,0,0.05,30,0)" xlink:href="#aF"/><use transform="matrix(0.05,0,0,0.05,40,0)" xlink:href="#aG"/></g><path d="M115-194c53 0 69 39 70 98 0 66-23 100-70 100C84 3 66-7 56-30L54 0H23l1-261h32v101c10-23 28-34 59-34zm-8 174c40 0 45-34 45-75 0-40-5-75-45-74-42 0-51 32-51 76 0 43 10 73 51 73" id="aH"/><path d="M59-47c-2 24 18 29 38 22v24C64 9 27 4 27-40v-127H5v-23h24l9-43h21v43h35v23H59v120" id="aI"/><path d="M24 0v-261h32V0H24" id="aJ"/><g id="m"><use transform="matrix(0.05,0,0,0.05,0,0)" xlink:href="#aH"/><use transform="matrix(0.05,0,0,0.05,10,0)" xlink:href="#aF"/><use transform="matrix(0.05,0,0,0.05,20,0)" xlink:href="#aE"/><use transform="matrix(0.05,0,0,0.05,29,0)" xlink:href="#aI"/><use transform="matrix(0.05,0,0,0.05,34,0)" xlink:href="#aF"/><use transform="matrix(0.05,0,0,0.05,44,0)" xlink:href="#aJ"/><use transform="matrix(0.05,0,0,0.05,47.95,0)" xlink:href="#aJ"/><use transform="matrix(0.05,0,0,0.05,51.900000000000006,0)" xlink:href="#aF"/><use transform="matrix(0.05,0,0,0.05,61.900000000000006,0)" xlink:href="#aG"/></g><path fill="#333" d="M18-100v-36l175-74v27L42-118l151 64v27" id="aK"/><path fill="#333" d="M24-231v-30h32v30H24zM24 0v-190h32V0H24" id="aL"/><path fill="#333" d="M135-143c-3-34-86-38-87 0 15 53 115 12 119 90S17 21 10-45l28-5c4 36 97 45 98 0-10-56-113-15-118-90-4-57 82-63 122-42 12 7 21 19 24 35" id="aM"/><path fill="#333" d="M18-27v-27l151-64-151-65v-27l175 74v36" id="aN"/><g id="n"><use transform="matrix(0.05,0,0,0.05,0,0)" xlink:href="#aK"/><use transform="matrix(0.05,0,0,0.05,10.5,0)" xlink:href="#aK"/><use transform="matrix(0.05,0,0,0.05,21,0)" xlink:href="#aL"/><use transform="matrix(0.05,0,0,0.05,24.95,0)" xlink:href="#ar"/><use transform="matrix(0.05,0,0,0.05,34.95,0)" xlink:href="#aB"/><use transform="matrix(0.05,0,0,0.05,43.95,0)" xlink:href="#ay"/><use transform="matrix(0.05,0,0,0.05,47.900000000000006,0)" xlink:href="#aq"/><use transform="matrix(0.05,0,0,0.05,57.900000000000006,0)" xlink:href="#as"/><use transform="matrix(0.05,0,0,0.05,67.9,0)" xlink:href="#at"/><use transform="matrix(0.05,0,0,0.05,77.9,0)" xlink:href="#aM"/><use transform="matrix(0.05,0,0,0.05,86.9,0)" xlink:href="#aN"/><use transform="matrix(0.05,0,0,0.05,97.4,0)" xlink:href="#aN"/></g><path d="M9 0v-24l116-142H16v-24h144v24L44-24h123V0H9" id="aO"/><path d="M84 4C-5 8 30-112 23-190h32v120c0 31 7 50 39 49 72-2 45-101 50-169h31l1 190h-30c-1-10 1-25-2-33-11 22-28 36-60 37" id="aP"/><path d="M114-163C36-179 61-72 57 0H25l-1-190h30c1 12-1 29 2 39 6-27 23-49 58-41v29" id="aQ"/><path d="M24-231v-30h32v30H24zM24 0v-190h32V0H24" id="aR"/><g id="o"><use transform="matrix(0.05,0,0,0.05,0,0)" xlink:href="#aO"/><use transform="matrix(0.05,0,0,0.05,9,0)" xlink:href="#aP"/><use transform="matrix(0.05,0,0,0.05,19,0)" xlink:href="#aH"/><use transform="matrix(0.05,0,0,0.05,29,0)" xlink:href="#aF"/><use transform="matrix(0.05,0,0,0.05,39,0)" xlink:href="#aQ"/><use transform="matrix(0.05,0,0,0.05,44.95,0)" xlink:href="#aF"/><use transform="matrix(0.05,0,0,0.05,54.95,0)" xlink:href="#aR"/><use transform="matrix(0.05,0,0,0.05,58.900000000000006,0)" xlink:href="#aI"/><use transform="matrix(0.05,0,0,0.05,63.900000000000006,0)" xlink:href="#aF"/><use transform="matrix(0.05,0,0,0.05,73.9,0)" xlink:href="#aG"/></g><path d="M233-177c-1 41-23 64-60 70L243 0h-38l-65-103H63V0H30v-248c88 3 205-21 203 71zM63-129c60-2 137 13 137-47 0-61-80-42-137-45v92" id="aS"/><path d="M96-169c-40 0-48 33-48 73s9 75 48 75c24 0 41-14 43-38l32 2c-6 37-31 61-74 61-59 0-76-41-82-99-10-93 101-131 147-64 4 7 5 14 7 22l-32 3c-4-21-16-35-41-35" id="aT"/><path d="M106-169C34-169 62-67 57 0H25v-261h32l-1 103c12-21 28-36 61-36 89 0 53 116 60 194h-32v-121c2-32-8-49-39-48" id="aU"/><path d="M177-190C167-65 218 103 67 71c-23-6-38-20-44-43l32-5c15 47 100 32 89-28v-30C133-14 115 1 83 1 29 1 15-40 15-95c0-56 16-97 71-98 29-1 48 16 59 35 1-10 0-23 2-32h30zM94-22c36 0 50-32 50-73 0-42-14-75-50-75-39 0-46 34-46 75s6 73 46 73" id="aV"/><g id="p"><use transform="matrix(0.05,0,0,0.05,0,0)" xlink:href="#aS"/><use transform="matrix(0.05,0,0,0.05,12.950000000000001,0)" xlink:href="#aF"/><use transform="matrix(0.05,0,0,0.05,22.950000000000003,0)" xlink:href="#aT"/><use transform="matrix(0.05,0,0,0.05,31.950000000000003,0)" xlink:href="#aU"/><use transform="matrix(0.05,0,0,0.05,41.95,0)" xlink:href="#aG"/><use transform="matrix(0.05,0,0,0.05,51.95,0)" xlink:href="#aP"/><use transform="matrix(0.05,0,0,0.05,61.95,0)" xlink:href="#aG"/><use transform="matrix(0.05,0,0,0.05,71.95,0)" xlink:href="#aV"/></g><path d="M141-36C126-15 110 5 73 4 37 3 15-17 15-53c-1-64 63-63 125-63 3-35-9-54-41-54-24 1-41 7-42 31l-33-3c5-37 33-52 76-52 45 0 72 20 72 64v82c-1 20 7 32 28 27v20c-31 9-61-2-59-35zM48-53c0 20 12 33 32 33 41-3 63-29 60-74-43 2-92-5-92 41" id="aW"/><g id="q"><use transform="matrix(0.05,0,0,0.05,0,0)" xlink:href="#aH"/><use transform="matrix(0.05,0,0,0.05,10,0)" xlink:href="#aF"/><use transform="matrix(0.05,0,0,0.05,20,0)" xlink:href="#aO"/><use transform="matrix(0.05,0,0,0.05,29,0)" xlink:href="#aW"/><use transform="matrix(0.05,0,0,0.05,39,0)" xlink:href="#aU"/><use transform="matrix(0.05,0,0,0.05,49,0)" xlink:href="#aJ"/><use transform="matrix(0.05,0,0,0.05,52.95,0)" xlink:href="#aF"/><use transform="matrix(0.05,0,0,0.05,62.95,0)" xlink:href="#aG"/></g><path d="M160-131c35 5 61 23 61 61C221 17 115-2 30 0v-248c76 3 177-17 177 60 0 33-19 50-47 57zm-97-11c50-1 110 9 110-42 0-47-63-36-110-37v79zm0 115c55-2 124 14 124-45 0-56-70-42-124-44v89" id="aX"/><path d="M210-169c-67 3-38 105-44 169h-31v-121c0-29-5-50-35-48C34-165 62-65 56 0H25l-1-190h30c1 10-1 24 2 32 10-44 99-50 107 0 11-21 27-35 58-36 85-2 47 119 55 194h-31v-121c0-29-5-49-35-48" id="aY"/><g id="r"><use transform="matrix(0.05,0,0,0.05,0,0)" xlink:href="#aX"/><use transform="matrix(0.05,0,0,0.05,12,0)" xlink:href="#aF"/><use transform="matrix(0.05,0,0,0.05,22,0)" xlink:href="#aI"/><use transform="matrix(0.05,0,0,0.05,27,0)" xlink:href="#aQ"/><use transform="matrix(0.05,0,0,0.05,32.95,0)" xlink:href="#aW"/><use transform="matrix(0.05,0,0,0.05,42.95,0)" xlink:href="#aV"/><use transform="matrix(0.05,0,0,0.05,52.95,0)" xlink:href="#aE"/><use transform="matrix(0.05,0,0,0.05,61.95,0)" xlink:href="#aW"/><use transform="matrix(0.05,0,0,0.05,71.95,0)" xlink:href="#aG"/><use transform="matrix(0.05,0,0,0.05,81.95,0)" xlink:href="#aG"/><use transform="matrix(0.05,0,0,0.05,91.95,0)" xlink:href="#aW"/><use transform="matrix(0.05,0,0,0.05,101.95,0)" xlink:href="#aU"/><use transform="matrix(0.05,0,0,0.05,111.95,0)" xlink:href="#aY"/><use transform="matrix(0.05,0,0,0.05,126.9,0)" xlink:href="#aF"/></g><path d="M194 0L95-120 63-95V0H30v-248h33v124l119-124h40L117-140 236 0h-42" id="aZ"/><g id="s"><use transform="matrix(0.05,0,0,0.05,0,0)" xlink:href="#aZ"/><use transform="matrix(0.05,0,0,0.05,12,0)" xlink:href="#aW"/><use transform="matrix(0.05,0,0,0.05,22,0)" xlink:href="#aQ"/><use transform="matrix(0.05,0,0,0.05,27.950000000000003,0)" xlink:href="#aI"/><use transform="matrix(0.05,0,0,0.05,32.95,0)" xlink:href="#aF"/><use transform="matrix(0.05,0,0,0.05,42.95,0)" xlink:href="#aG"/><use transform="matrix(0.05,0,0,0.05,52.95,0)" xlink:href="#aO"/><use transform="matrix(0.05,0,0,0.05,61.95,0)" xlink:href="#aW"/><use transform="matrix(0.05,0,0,0.05,71.95,0)" xlink:href="#aU"/><use transform="matrix(0.05,0,0,0.05,81.95,0)" xlink:href="#aJ"/><use transform="matrix(0.05,0,0,0.05,85.9,0)" xlink:href="#aP"/><use transform="matrix(0.05,0,0,0.05,95.9,0)" xlink:href="#aG"/><use transform="matrix(0.05,0,0,0.05,105.9,0)" xlink:href="#aV"/></g><path d="M24 0v-248h195v40H76v63h132v40H76v65h150V0H24" id="ba"/><path d="M144 0l-44-69L55 0H2l70-98-66-92h53l41 62 40-62h54l-67 91 71 99h-54" id="bb"/><path d="M115-3C79 11 28 4 28-45v-112H4v-33h27l15-45h31v45h36v33H77v99c-1 23 16 31 38 25v30" id="bc"/><path d="M185-48c-13 30-37 53-82 52C43 2 14-33 14-96s30-98 90-98c62 0 83 45 84 108H66c0 31 8 55 39 56 18 0 30-7 34-22zm-45-69c5-46-57-63-70-21-2 6-4 13-4 21h74" id="bd"/><path d="M135-194c87-1 58 113 63 194h-50c-7-57 23-157-34-157-59 0-34 97-39 157H25l-1-190h47c2 12-1 28 3 38 12-26 28-41 61-42" id="be"/><path d="M137-138c1-29-70-34-71-4 15 46 118 7 119 86 1 83-164 76-172 9l43-7c4 19 20 25 44 25 33 8 57-30 24-41C81-84 22-81 20-136c-2-80 154-74 161-7" id="bf"/><path d="M25-224v-37h50v37H25zM25 0v-190h50V0H25" id="bg"/><path d="M110-194c64 0 96 36 96 99 0 64-35 99-97 99-61 0-95-36-95-99 0-62 34-99 96-99zm-1 164c35 0 45-28 45-65 0-40-10-65-43-65-34 0-45 26-45 65 0 36 10 65 43 65" id="bh"/><g id="t"><use transform="matrix(0.05,0,0,0.05,0,0)" xlink:href="#ba"/><use transform="matrix(0.05,0,0,0.05,12,0)" xlink:href="#bb"/><use transform="matrix(0.05,0,0,0.05,22,0)" xlink:href="#bc"/><use transform="matrix(0.05,0,0,0.05,27.950000000000003,0)" xlink:href="#bd"/><use transform="matrix(0.05,0,0,0.05,37.95,0)" xlink:href="#be"/><use transform="matrix(0.05,0,0,0.05,48.900000000000006,0)" xlink:href="#bf"/><use transform="matrix(0.05,0,0,0.05,58.900000000000006,0)" xlink:href="#bg"/><use transform="matrix(0.05,0,0,0.05,63.900000000000006,0)" xlink:href="#bh"/><use transform="matrix(0.05,0,0,0.05,74.85000000000001,0)" xlink:href="#be"/></g><path d="M24-248c93 1 206-16 204 79-1 75-69 88-152 82V0H24v-248zm52 121c47 0 100 7 100-41 0-47-54-39-100-39v80" id="bi"/><g id="u"><use transform="matrix(0.05,0,0,0.05,0,0)" xlink:href="#bi"/><use transform="matrix(0.05,0,0,0.05,12,0)" xlink:href="#bh"/><use transform="matrix(0.05,0,0,0.05,22.950000000000003,0)" xlink:href="#bg"/><use transform="matrix(0.05,0,0,0.05,27.950000000000003,0)" xlink:href="#be"/><use transform="matrix(0.05,0,0,0.05,38.900000000000006,0)" xlink:href="#bc"/><use transform="matrix(0.05,0,0,0.05,44.85000000000001,0)" xlink:href="#bf"/></g><g id="v"><use transform="matrix(0.05,0,0,0.05,0,0)" xlink:href="#au"/><use transform="matrix(0.05,0,0,0.05,12,0)" xlink:href="#av"/><use transform="matrix(0.05,0,0,0.05,17,0)" xlink:href="#aw"/><use transform="matrix(0.05,0,0,0.05,29,0)" xlink:href="#ax"/><use transform="matrix(0.05,0,0,0.05,34.95,0)" xlink:href="#ap"/><use transform="matrix(0.05,0,0,0.05,46.95,0)" xlink:href="#at"/><use transform="matrix(0.05,0,0,0.05,56.95,0)" xlink:href="#ay"/><use transform="matrix(0.05,0,0,0.05,60.900000000000006,0)" xlink:href="#ay"/><use transform="matrix(0.05,0,0,0.05,64.85000000000001,0)" xlink:href="#ar"/><use transform="matrix(0.05,0,0,0.05,74.85000000000001,0)" xlink:href="#at"/><use transform="matrix(0.05,0,0,0.05,84.85000000000001,0)" xlink:href="#az"/></g><path d="M30-248c87 1 191-15 191 75 0 78-77 80-158 76V0H30v-248zm33 125c57 0 124 11 124-50 0-59-68-47-124-48v98" id="bj"/><path d="M108 0H70L1-190h34L89-25l56-165h34" id="bk"/><path d="M143 0L79-87 56-68V0H24v-261h32v163l83-92h37l-77 82L181 0h-38" id="bl"/><g id="w"><use transform="matrix(0.05,0,0,0.05,0,0)" xlink:href="#bj"/><use transform="matrix(0.05,0,0,0.05,12,0)" xlink:href="#aQ"/><use transform="matrix(0.05,0,0,0.05,17.95,0)" xlink:href="#aR"/><use transform="matrix(0.05,0,0,0.05,21.9,0)" xlink:href="#bk"/><use transform="matrix(0.05,0,0,0.05,30.899999999999995,0)" xlink:href="#aW"/><use transform="matrix(0.05,0,0,0.05,40.9,0)" xlink:href="#aI"/><use transform="matrix(0.05,0,0,0.05,45.9,0)" xlink:href="#bl"/><use transform="matrix(0.05,0,0,0.05,54.900000000000006,0)" xlink:href="#aF"/><use transform="matrix(0.05,0,0,0.05,64.9,0)" xlink:href="#aJ"/><use transform="matrix(0.05,0,0,0.05,68.85000000000001,0)" xlink:href="#aJ"/><use transform="matrix(0.05,0,0,0.05,72.80000000000001,0)" xlink:href="#aG"/><use transform="matrix(0.05,0,0,0.05,82.80000000000001,0)" xlink:href="#aF"/><use transform="matrix(0.05,0,0,0.05,92.80000000000001,0)" xlink:href="#aQ"/></g><path d="M101-234c-31-9-42 10-38 44h38v23H63V0H32v-167H5v-23h27c-7-52 17-82 69-68v24" id="bm"/><g id="x"><use transform="matrix(0.05,0,0,0.05,0,0)" xlink:href="#aQ"/><use transform="matrix(0.05,0,0,0.05,5.95,0)" xlink:href="#aP"/><use transform="matrix(0.05,0,0,0.05,15.949999999999998,0)" xlink:href="#bm"/><use transform="matrix(0.05,0,0,0.05,20.95,0)" xlink:href="#aF"/><use transform="matrix(0.05,0,0,0.05,30.950000000000003,0)" xlink:href="#aG"/></g><path fill="#333" d="M141 0L90-78 38 0H4l68-98-65-92h35l48 74 47-74h35l-64 92 68 98h-35" id="bn"/><path fill="#333" d="M59-47c-2 24 18 29 38 22v24C64 9 27 4 27-40v-127H5v-23h24l9-43h21v43h35v23H59v120" id="bo"/><g id="y"><use transform="matrix(0.05,0,0,0.05,0,0)" xlink:href="#aK"/><use transform="matrix(0.05,0,0,0.05,10.5,0)" xlink:href="#aK"/><use transform="matrix(0.05,0,0,0.05,21,0)" xlink:href="#at"/><use transform="matrix(0.05,0,0,0.05,31,0)" xlink:href="#bn"/><use transform="matrix(0.05,0,0,0.05,40,0)" xlink:href="#bo"/><use transform="matrix(0.05,0,0,0.05,45,0)" xlink:href="#at"/><use transform="matrix(0.05,0,0,0.05,55,0)" xlink:href="#ar"/><use transform="matrix(0.05,0,0,0.05,65,0)" xlink:href="#as"/><use transform="matrix(0.05,0,0,0.05,75,0)" xlink:href="#aM"/><use transform="matrix(0.05,0,0,0.05,84,0)" xlink:href="#aN"/><use transform="matrix(0.05,0,0,0.05,94.5,0)" xlink:href="#aN"/></g><path d="M100-194c62-1 85 37 85 99 1 63-27 99-86 99S16-35 15-95c0-66 28-99 85-99zM99-20c44 1 53-31 53-75 0-43-8-75-51-75s-53 32-53 75 10 74 51 75" id="bp"/><g id="z"><use transform="matrix(0.05,0,0,0.05,0,0)" xlink:href="#bj"/><use transform="matrix(0.05,0,0,0.05,12,0)" xlink:href="#bp"/><use transform="matrix(0.05,0,0,0.05,22,0)" xlink:href="#aJ"/><use transform="matrix(0.05,0,0,0.05,25.950000000000003,0)" xlink:href="#aR"/><use transform="matrix(0.05,0,0,0.05,29.899999999999995,0)" xlink:href="#aO"/><use transform="matrix(0.05,0,0,0.05,38.9,0)" xlink:href="#aF"/><use transform="matrix(0.05,0,0,0.05,48.9,0)" xlink:href="#aR"/></g><path d="M240 0l2-218c-23 76-54 145-80 218h-23L58-218 59 0H30v-248h44l77 211c21-75 51-140 76-211h43V0h-30" id="bq"/><g id="A"><use transform="matrix(0.05,0,0,0.05,0,0)" xlink:href="#bq"/><use transform="matrix(0.05,0,0,0.05,14.950000000000001,0)" xlink:href="#aR"/><use transform="matrix(0.05,0,0,0.05,18.900000000000002,0)" xlink:href="#aI"/></g><g id="B"><use transform="matrix(0.05,0,0,0.05,0,0)" xlink:href="#aZ"/><use transform="matrix(0.05,0,0,0.05,12,0)" xlink:href="#aW"/><use transform="matrix(0.05,0,0,0.05,22,0)" xlink:href="#aQ"/><use transform="matrix(0.05,0,0,0.05,27.950000000000003,0)" xlink:href="#aI"/><use transform="matrix(0.05,0,0,0.05,32.95,0)" xlink:href="#aF"/></g><g id="C"><use transform="matrix(0.05,0,0,0.05,0,0)" xlink:href="#aZ"/><use transform="matrix(0.05,0,0,0.05,12,0)" xlink:href="#aW"/><use transform="matrix(0.05,0,0,0.05,22,0)" xlink:href="#aQ"/><use transform="matrix(0.05,0,0,0.05,27.950000000000003,0)" xlink:href="#aI"/><use transform="matrix(0.05,0,0,0.05,32.95,0)" xlink:href="#aF"/></g><path d="M115-194c55 1 70 41 70 98S169 2 115 4C84 4 66-9 55-30l1 105H24l-1-265h31l2 30c10-21 28-34 59-34zm-8 174c40 0 45-34 45-75s-6-73-45-74c-42 0-51 32-51 76 0 43 10 73 51 73" id="br"/><path d="M85 4C-4 8 31-112 24-190h32v120c0 31 7 50 39 49 72-2 45-101 50-169h31l1 190h-30c-1-10 1-25-2-33-11 22-28 36-60 37zm34-218v-33h29v33h-29zm-69 0v-33h29v33H50" id="bs"/><g id="D"><use transform="matrix(0.05,0,0,0.05,0,0)" xlink:href="#br"/><use transform="matrix(0.05,0,0,0.05,10,0)" xlink:href="#aQ"/><use transform="matrix(0.05,0,0,0.05,15.949999999999998,0)" xlink:href="#bs"/><use transform="matrix(0.05,0,0,0.05,25.950000000000003,0)" xlink:href="#bm"/><use transform="matrix(0.05,0,0,0.05,30.950000000000003,0)" xlink:href="#aF"/><use transform="matrix(0.05,0,0,0.05,40.95,0)" xlink:href="#aG"/></g><path fill="#333" d="M143 0L79-87 56-68V0H24v-261h32v163l83-92h37l-77 82L181 0h-38" id="bt"/><path fill="#333" d="M141-36C126-15 110 5 73 4 37 3 15-17 15-53c-1-64 63-63 125-63 3-35-9-54-41-54-24 1-41 7-42 31l-33-3c5-37 33-52 76-52 45 0 72 20 72 64v82c-1 20 7 32 28 27v20c-31 9-61-2-59-35zM48-53c0 20 12 33 32 33 41-3 63-29 60-74-43 2-92-5-92 41" id="bu"/><g id="E"><use transform="matrix(0.05,0,0,0.05,0,0)" xlink:href="#ap"/><use transform="matrix(0.05,0,0,0.05,12,0)" xlink:href="#az"/><use transform="matrix(0.05,0,0,0.05,17.95,0)" xlink:href="#at"/><use transform="matrix(0.05,0,0,0.05,27.950000000000003,0)" xlink:href="#as"/><use transform="matrix(0.05,0,0,0.05,37.95,0)" xlink:href="#aL"/><use transform="matrix(0.05,0,0,0.05,41.900000000000006,0)" xlink:href="#bo"/><use transform="matrix(0.05,0,0,0.05,46.900000000000006,0)" xlink:href="#bt"/><use transform="matrix(0.05,0,0,0.05,55.900000000000006,0)" xlink:href="#bu"/><use transform="matrix(0.05,0,0,0.05,65.9,0)" xlink:href="#az"/><use transform="matrix(0.05,0,0,0.05,71.85000000000001,0)" xlink:href="#bo"/><use transform="matrix(0.05,0,0,0.05,76.85000000000001,0)" xlink:href="#at"/><use transform="matrix(0.05,0,0,0.05,86.85000000000001,0)" xlink:href="#ar"/></g><path fill="#333" d="M143 4C61 4 22-44 18-125c-5-107 100-154 193-111 17 8 29 25 37 43l-32 9c-13-25-37-40-76-40-61 0-88 39-88 99 0 61 29 100 91 101 35 0 62-11 79-27v-45h-74v-28h105v86C228-13 192 4 143 4" id="bv"/><path fill="#333" d="M101-234c-31-9-42 10-38 44h38v23H63V0H32v-167H5v-23h27c-7-52 17-82 69-68v24" id="bw"/><g id="F"><use transform="matrix(0.05,0,0,0.05,0,0)" xlink:href="#bv"/><use transform="matrix(0.05,0,0,0.05,14,0)" xlink:href="#at"/><use transform="matrix(0.05,0,0,0.05,24,0)" xlink:href="#aM"/><use transform="matrix(0.05,0,0,0.05,33,0)" xlink:href="#at"/><use transform="matrix(0.05,0,0,0.05,43,0)" xlink:href="#ay"/><use transform="matrix(0.05,0,0,0.05,46.95,0)" xlink:href="#ay"/><use transform="matrix(0.05,0,0,0.05,50.900000000000006,0)" xlink:href="#aM"/><use transform="matrix(0.05,0,0,0.05,59.900000000000006,0)" xlink:href="#aB"/><use transform="matrix(0.05,0,0,0.05,68.9,0)" xlink:href="#aC"/><use transform="matrix(0.05,0,0,0.05,78.9,0)" xlink:href="#bu"/><use transform="matrix(0.05,0,0,0.05,88.9,0)" xlink:href="#bw"/><use transform="matrix(0.05,0,0,0.05,93.9,0)" xlink:href="#bo"/></g><path fill="#333" d="M33-154v-36h34v36H33zM33 0v-36h34V0H33" id="bx"/><g id="G"><use transform="matrix(0.05,0,0,0.05,0,0)" xlink:href="#aB"/><use transform="matrix(0.05,0,0,0.05,9,0)" xlink:href="#aA"/><use transform="matrix(0.05,0,0,0.05,19,0)" xlink:href="#ar"/><use transform="matrix(0.05,0,0,0.05,29,0)" xlink:href="#as"/><use transform="matrix(0.05,0,0,0.05,39,0)" xlink:href="#aL"/><use transform="matrix(0.05,0,0,0.05,42.95,0)" xlink:href="#bo"/><use transform="matrix(0.05,0,0,0.05,47.95,0)" xlink:href="#aL"/><use transform="matrix(0.05,0,0,0.05,51.900000000000006,0)" xlink:href="#aA"/><use transform="matrix(0.05,0,0,0.05,61.900000000000006,0)" xlink:href="#ar"/><use transform="matrix(0.05,0,0,0.05,71.9,0)" xlink:href="#bx"/></g><path fill="#333" d="M39-94c74 12-11 154 75 146v23c-44 4-70-10-70-52C44-23 55-84 6-82v-22c81 4-7-162 84-157h24v23c-82-15-2 131-75 144" id="by"/><path fill="#333" d="M9 0v-24l116-142H16v-24h144v24L44-24h123V0H9" id="bz"/><path fill="#333" d="M177-190C167-65 218 103 67 71c-23-6-38-20-44-43l32-5c15 47 100 32 89-28v-30C133-14 115 1 83 1 29 1 15-40 15-95c0-56 16-97 71-98 29-1 48 16 59 35 1-10 0-23 2-32h30zM94-22c36 0 50-32 50-73 0-42-14-75-50-75-39 0-46 34-46 75s6 73 46 73" id="bA"/><g id="H"><use transform="matrix(0.05,0,0,0.05,0,0)" xlink:href="#by"/><use transform="matrix(0.05,0,0,0.05,6,0)" xlink:href="#ap"/><use transform="matrix(0.05,0,0,0.05,18,0)" xlink:href="#bu"/><use transform="matrix(0.05,0,0,0.05,28,0)" xlink:href="#az"/><use transform="matrix(0.05,0,0,0.05,33.95,0)" xlink:href="#bo"/><use transform="matrix(0.05,0,0,0.05,38.95,0)" xlink:href="#at"/><use transform="matrix(0.05,0,0,0.05,48.95,0)" xlink:href="#ar"/><use transform="matrix(0.05,0,0,0.05,58.95,0)" xlink:href="#bz"/><use transform="matrix(0.05,0,0,0.05,67.95,0)" xlink:href="#bu"/><use transform="matrix(0.05,0,0,0.05,77.95,0)" xlink:href="#aC"/><use transform="matrix(0.05,0,0,0.05,87.95,0)" xlink:href="#ay"/><use transform="matrix(0.05,0,0,0.05,91.9,0)" xlink:href="#aq"/><use transform="matrix(0.05,0,0,0.05,101.9,0)" xlink:href="#ar"/><use transform="matrix(0.05,0,0,0.05,111.9,0)" xlink:href="#bA"/></g><path fill="#333" d="M206 0h-36l-40-164L89 0H53L-1-190h32L70-26l43-164h34l41 164 42-164h31" id="bB"/><path fill="#333" d="M85 4C-4 8 31-112 24-190h32v120c0 31 7 50 39 49 72-2 45-101 50-169h31l1 190h-30c-1-10 1-25-2-33-11 22-28 36-60 37zm34-218v-33h29v33h-29zm-69 0v-33h29v33H50" id="bC"/><path fill="#333" d="M76-40C78 24 84 88 6 75V52C86 64 9-79 80-94c-40-6-34-59-34-106 1-29-11-41-40-38v-23c44-4 70 10 70 52 0 47-12 108 38 105v22c-26 1-39 14-38 42" id="bD"/><g id="I"><use transform="matrix(0.05,0,0,0.05,0,0)" xlink:href="#bA"/><use transform="matrix(0.05,0,0,0.05,10,0)" xlink:href="#at"/><use transform="matrix(0.05,0,0,0.05,20,0)" xlink:href="#bB"/><use transform="matrix(0.05,0,0,0.05,32.95,0)" xlink:href="#bC"/><use transform="matrix(0.05,0,0,0.05,42.95,0)" xlink:href="#ar"/><use transform="matrix(0.05,0,0,0.05,52.95,0)" xlink:href="#aM"/><use transform="matrix(0.05,0,0,0.05,61.95,0)" xlink:href="#aB"/><use transform="matrix(0.05,0,0,0.05,70.95,0)" xlink:href="#aC"/><use transform="matrix(0.05,0,0,0.05,80.95,0)" xlink:href="#bo"/><use transform="matrix(0.05,0,0,0.05,85.95,0)" xlink:href="#bD"/></g><g id="J"><use transform="matrix(0.05,0,0,0.05,0,0)" xlink:href="#at"/><use transform="matrix(0.05,0,0,0.05,10,0)" xlink:href="#bn"/><use transform="matrix(0.05,0,0,0.05,19,0)" xlink:href="#bo"/><use transform="matrix(0.05,0,0,0.05,24,0)" xlink:href="#at"/><use transform="matrix(0.05,0,0,0.05,34,0)" xlink:href="#ar"/><use transform="matrix(0.05,0,0,0.05,44,0)" xlink:href="#aM"/><use transform="matrix(0.05,0,0,0.05,53,0)" xlink:href="#aL"/><use transform="matrix(0.05,0,0,0.05,56.95,0)" xlink:href="#aA"/><use transform="matrix(0.05,0,0,0.05,66.95,0)" xlink:href="#ar"/></g><path fill="#333" d="M115-194c55 1 70 41 70 98S169 2 115 4C84 4 66-9 55-30l1 105H24l-1-265h31l2 30c10-21 28-34 59-34zm-8 174c40 0 45-34 45-75s-6-73-45-74c-42 0-51 32-51 76 0 43 10 73 51 73" id="bE"/><g id="K"><use transform="matrix(0.05,0,0,0.05,0,0)" xlink:href="#bE"/><use transform="matrix(0.05,0,0,0.05,10,0)" xlink:href="#aA"/><use transform="matrix(0.05,0,0,0.05,20,0)" xlink:href="#aL"/><use transform="matrix(0.05,0,0,0.05,23.95,0)" xlink:href="#ar"/><use transform="matrix(0.05,0,0,0.05,33.95,0)" xlink:href="#bo"/><use transform="matrix(0.05,0,0,0.05,38.95,0)" xlink:href="#bx"/></g><g id="L"><use transform="matrix(0.05,0,0,0.05,0,0)" xlink:href="#ap"/><use transform="matrix(0.05,0,0,0.05,12,0)" xlink:href="#bu"/><use transform="matrix(0.05,0,0,0.05,22,0)" xlink:href="#az"/><use transform="matrix(0.05,0,0,0.05,27.950000000000003,0)" xlink:href="#bo"/><use transform="matrix(0.05,0,0,0.05,32.95,0)" xlink:href="#at"/><use transform="matrix(0.05,0,0,0.05,42.95,0)" xlink:href="#ar"/><use transform="matrix(0.05,0,0,0.05,52.95,0)" xlink:href="#bz"/><use transform="matrix(0.05,0,0,0.05,61.95,0)" xlink:href="#bu"/><use transform="matrix(0.05,0,0,0.05,71.95,0)" xlink:href="#aC"/><use transform="matrix(0.05,0,0,0.05,81.95,0)" xlink:href="#ay"/><use transform="matrix(0.05,0,0,0.05,85.9,0)" xlink:href="#aq"/><use transform="matrix(0.05,0,0,0.05,95.9,0)" xlink:href="#ar"/><use transform="matrix(0.05,0,0,0.05,105.9,0)" xlink:href="#bA"/></g></defs></g></svg>